# xmcd
#
# Track frame offsets:
#	150
#	14585
#	27897
#	42787
#	55717
#	68190
#	80895
#	93830
#	108425
#	123655
#	138615
#	151997
#	167292
#	181855
#	196195
#	210400
#	225725
#	238470
#	253752
#	269492
#	284570
#	300247
#	315012
#
# Disc length: 4374 seconds
#
# Revision: 0
# Processed by: cddbd v1.5PL3 Copyright (c) Steve Scherf et al.
# Submitted via: audiograbber 1.81.03
#
DISCID=39111417
DTITLE=Tampa Red - Complete Recorded Works  Vol. 5
DYEAR=1931
DGENRE=Blues
TTITLE0=Mama don't Leave Me Here
TTITLE1=Please Mister Blues
TTITLE2=No Matter How She Done It
TTITLE3=Reckless Man Blues
TTITLE4=Don't Leave Me Here
TTITLE5=Dead Cats on the Line
TTITLE6=You can't Get That Stuff No More
TTITLE7=Things 'Bout Coming My Way No.2
TTITLE8=Turpentine Blues
TTITLE9=Western Bound Blues
TTITLE10=I'll Kill Your Soul
TTITLE11=If I Let You Get Away With It
TTITLE12=I'll Find My Way
TTITLE13=You've Got to Do Better
TTITLE14=Kingfish Blues
TTITLE15=You Don't Want Me Blues
TTITLE16=Nobody's Sweetheart Now
TTITLE17=That Stuff is Here
TTITLE18=Sugar Mama Blues No. 1
TTITLE19=Sugar mama Blues No. 2
TTITLE20=Black Angel Blues
TTITLE21=Things 'Bout Coming My Way (gtr solo)
TTITLE22=Denver Blues (gtr solo)
EXTD=DOCD-5077  24 October 1931 to 23 March 1934
EXTT0=
EXTT1=
EXTT2=
EXTT3=
EXTT4=
EXTT5=
EXTT6=
EXTT7=
EXTT8=
EXTT9=
EXTT10=
EXTT11=
EXTT12=
EXTT13=
EXTT14=
EXTT15=
EXTT16=
EXTT17=
EXTT18=
EXTT19=
EXTT20=
EXTT21=
EXTT22=
PLAYORDER=
